<svg xmlns="http://www.w3.org/2000/svg" viewBox="0 0 1200 675" role="img" aria-label="Presentation screens illustration">
  <rect width="1200" height="675" fill="#14120f"/>
  <g>
    <rect x="80" y="110" width="480" height="300" rx="18" fill="#1e1b18" stroke="#4d463f" stroke-width="3"/>
    <rect x="110" y="140" width="420" height="40" rx="8" fill="#f0762b"/><rect x="110" y="200" width="200" height="180" rx="10" fill="#2a2622"/><rect x="330" y="200" width="200" height="80" rx="10" fill="#2a2622"/><rect x="330" y="300" width="200" height="80" rx="10" fill="#c8975b" opacity=".8"/>
    <path d="M130 350 L180 300 L220 330 L290 250" fill="none" stroke="#34A853" stroke-width="6" stroke-linecap="round"/>
    <rect x="640" y="80" width="480" height="300" rx="18" fill="#1e1b18" stroke="#4d463f" stroke-width="3"/>
    <rect x="670" y="110" width="170" height="240" rx="24" fill="#f7f3ee"/><rect x="690" y="140" width="130" height="16" rx="8" fill="#4285F4"/><rect x="690" y="170" width="100" height="12" rx="6" fill="#d9cfc4"/><rect x="690" y="200" width="130" height="80" rx="10" fill="#ffe4d1"/><rect x="690" y="295" width="130" height="30" rx="15" fill="#f0762b"/>
    <rect x="870" y="110" width="220" height="30" rx="8" fill="#2a2622"/><rect x="870" y="160" width="220" height="30" rx="8" fill="#2a2622"/><rect x="870" y="210" width="160" height="30" rx="8" fill="#2a2622"/><rect x="870" y="260" width="200" height="90" rx="10" fill="#4285F4" opacity=".8"/>
  </g>
  <rect x="0" y="470" width="1200" height="205" fill="#2a2622"/>
  <g fill="#8f857b"><circle cx="220" cy="540" r="30"/><circle cx="330" cy="555" r="28"/><circle cx="450" cy="545" r="30"/><circle cx="740" cy="550" r="29"/><circle cx="860" cy="540" r="30"/><circle cx="980" cy="555" r="28"/></g>
</svg>
