<svg xmlns="http://www.w3.org/2000/svg" viewBox="0 0 1200 675" role="img" aria-label="Laptops on a shared table illustration">
  <rect width="1200" height="675" fill="#1e1b18"/>
  <rect x="80" y="400" width="1040" height="40" rx="10" fill="#7f5a2b"/>
  <g>
    <rect x="160" y="200" width="300" height="190" rx="14" fill="#2a2622" stroke="#8f857b" stroke-width="3"/><rect x="130" y="390" width="360" height="16" rx="6" fill="#8f857b"/>
    <g font-family="ui-monospace,Menlo,monospace" font-size="22" fill="#f0762b"><text x="185" y="245">&lt;/&gt;</text></g>
    <rect x="240" y="232" width="160" height="12" rx="6" fill="#f98c4a"/><rect x="185" y="265" width="200" height="12" rx="6" fill="#4d463f"/><rect x="185" y="290" width="240" height="12" rx="6" fill="#4d463f"/><rect x="205" y="315" width="150" height="12" rx="6" fill="#34A853" opacity=".8"/><rect x="185" y="340" width="180" height="12" rx="6" fill="#4d463f"/>
    <rect x="740" y="200" width="300" height="190" rx="14" fill="#2a2622" stroke="#8f857b" stroke-width="3"/><rect x="710" y="390" width="360" height="16" rx="6" fill="#8f857b"/>
    <rect x="765" y="225" width="120" height="140" rx="10" fill="#f7f3ee"/><rect x="780" y="245" width="90" height="12" rx="6" fill="#c8975b"/><rect x="780" y="270" width="70" height="10" rx="5" fill="#d9cfc4"/><rect x="780" y="290" width="80" height="10" rx="5" fill="#d9cfc4"/><rect x="780" y="330" width="90" height="20" rx="10" fill="#f0762b"/>
    <rect x="905" y="230" width="110" height="12" rx="6" fill="#4d463f"/><rect x="905" y="255" width="90" height="12" rx="6" fill="#4d463f"/><rect x="905" y="280" width="110" height="60" rx="8" fill="#4285F4" opacity=".7"/>
  </g>
  <g fill="#c8975b"><circle cx="600" cy="360" r="22"/><rect x="540" y="330" width="16" height="70" rx="6" fill="#e2c79c"/></g>
  <g fill="#4d463f"><rect x="120" y="440" width="18" height="160"/><rect x="1062" y="440" width="18" height="160"/></g>
</svg>
